# xmcd
#
# Track frame offsets: 
#        150
#        23688
#        48836
#        70128
#        96218
#        121760
#        139805
#        165625
#        187912
#        209112
#
# Disc length: 3069 seconds
#
# Revision: 0
# Processed by: cddbd v1.5.2PL0 Copyright (c) Steve Scherf et al.
# Submitted via: ExactAudioCopy v1.0b3
#
DISCID=850bfb0a
DTITLE=Manh Quynh, Phi Nhung - Tinh ca Minh Ky 1
DYEAR=2005
DGENRE=
TTITLE0=Manh Quynh - Tro ve cat bui
TTITLE1=Phi Nhung - Nam cum nui que huong
TTITLE2=Manh Quynh - Chuyen tau hoang hon
TTITLE3=Phi Nhung - Mua tren pho Hue
TTITLE4=Manh Quynh - Thuong ve mien dat lanh
TTITLE5=Phi Nhung - Duong ve khuya
TTITLE6=Manh Quynh - Ao em chua mac mot lan
TTITLE7=Phi Nhung - Biet kinh ky
TTITLE8=Manh Quynh - Chuyen ba mua mua
TTITLE9=Manh Quynh - Mot chuyen xe hoa
EXTD=
EXTT0=
EXTT1=
EXTT2=
EXTT3=
EXTT4=
EXTT5=
EXTT6=
EXTT7=
EXTT8=
EXTT9=
PLAYORDER=
